HIERARCHY
ROOT Hips
{
	OFFSET 0.000000 0.000000 0.000000
	CHANNELS 6 Xposition Yposition Zposition Zrotation Yrotation Xrotation 
	JOINT LeftUpLeg_virtual
	{
		OFFSET 0.000000 0.000000 0.000000
		CHANNELS 3 Zrotation Yrotation Xrotation
		JOINT LeftUpLeg
		{
			OFFSET 8.479694 -4.795517 -0.379053
			CHANNELS 3 Zrotation Yrotation Xrotation
			JOINT LeftLeg
			{
				OFFSET 0.485052 -32.551468 0.112863
				CHANNELS 3 Zrotation Yrotation Xrotation
				JOINT LeftFoot
				{
					OFFSET 0.438033 -32.635670 -3.012641
					CHANNELS 3 Zrotation Yrotation Xrotation
					JOINT LeftToeBase
					{
						OFFSET 0.970169 -13.225353 11.864223
						CHANNELS 3 Zrotation Yrotation Xrotation
						End Site
						{
							OFFSET 0.000000 0.000000 0.000000
						}
					}
				}
			}
		}
	}
	JOINT RightUpLeg_virtual
	{
		OFFSET 0.000000 0.000000 0.000000
		CHANNELS 3 Zrotation Yrotation Xrotation
		JOINT RightUpLeg
		{
			OFFSET -8.479694 -4.795517 -0.379053
			CHANNELS 3 Zrotation Yrotation Xrotation
			JOINT RightLeg
			{
				OFFSET -0.484100 -32.551483 0.112903
				CHANNELS 3 Zrotation Yrotation Xrotation
				JOINT RightFoot
				{
					OFFSET -0.438985 -32.635651 -3.012681
					CHANNELS 3 Zrotation Yrotation Xrotation
					JOINT RightToeBase
					{
						OFFSET -0.970169 -13.225354 11.864223
						CHANNELS 3 Zrotation Yrotation Xrotation
						End Site
						{
							OFFSET 0.000000 0.000000 0.000000
						}
					}
				}
			}
		}
	}
	JOINT Spine_virtual
	{
		OFFSET 0.000000 0.000000 0.000000
		CHANNELS 3 Zrotation Yrotation Xrotation
		JOINT Spine
		{
			OFFSET 0.000000 7.722015 1.166203
			CHANNELS 3 Zrotation Yrotation Xrotation
			JOINT Spine1
			{
				OFFSET 0.000000 12.024086 0.248766
				CHANNELS 3 Zrotation Yrotation Xrotation
				JOINT Spine2
				{
					OFFSET -0.000000 11.503036 -0.491240
					CHANNELS 3 Zrotation Yrotation Xrotation
					JOINT Neck_virtual
					{
						OFFSET 0.000000 0.000000 0.000000
						CHANNELS 3 Zrotation Yrotation Xrotation
						JOINT Neck
						{
							OFFSET 0.000000 18.430687 -3.123054
							CHANNELS 3 Zrotation Yrotation Xrotation
							JOINT Head
							{
								OFFSET -0.000000 9.051071 1.034021
								CHANNELS 3 Zrotation Yrotation Xrotation
								End Site
								{
									OFFSET 0.000000 0.000000 0.000000
								}
							}
						}
					}
					JOINT LeftShoulder_virtual
					{
						OFFSET 0.000000 0.000000 0.000000
						CHANNELS 3 Zrotation Yrotation Xrotation
						JOINT LeftShoulder
						{
							OFFSET 6.197824 13.665230 -4.064723
							CHANNELS 3 Zrotation Yrotation Xrotation
							JOINT LeftArm
							{
								OFFSET 7.778132 -0.187073 -1.709282
								CHANNELS 3 Zrotation Yrotation Xrotation
								JOINT LeftForeArm
								{
									OFFSET 21.954697 0.000000 -2.041093
									CHANNELS 3 Zrotation Yrotation Xrotation
									JOINT LeftHand
									{
										OFFSET 22.992908 0.000000 -0.870901
										CHANNELS 3 Zrotation Yrotation Xrotation
										End Site
										{
											OFFSET 0.000000 0.000000 0.000000
										}
									}
								}
							}
						}
					}
					JOINT RightShoulder_virtual
					{
						OFFSET 0.000000 0.000000 0.000000
						CHANNELS 3 Zrotation Yrotation Xrotation
						JOINT RightShoulder
						{
							OFFSET -6.197824 13.665230 -4.064723
							CHANNELS 3 Zrotation Yrotation Xrotation
							JOINT RightArm
							{
								OFFSET -7.778132 -0.187073 -1.709282
								CHANNELS 3 Zrotation Yrotation Xrotation
								JOINT RightForeArm
								{
									OFFSET -21.954697 0.000000 -2.041093
									CHANNELS 3 Zrotation Yrotation Xrotation
									JOINT RightHand
									{
										OFFSET -22.992908 0.000000 -0.870901
										CHANNELS 3 Zrotation Yrotation Xrotation
										End Site
										{
											OFFSET 0.000000 0.000000 0.000000
										}
									}
								}
							}
						}
					}
				}
			}
		}
	}
}
MOTION
Frames: 8
Frame Time: 0.033333
10.598579 79.041275 -42.932838 -179.668905 -54.829589 -179.503259 -1.606587 -3.690114 10.993763 8.898280 -6.119752 -37.296671 2.150851 -1.602141 33.859655 -9.786143 -10.871913 -9.673506 0.000000 0.000000 0.000000 1.057552 -3.362619 12.359269 -2.493188 9.671511 -31.856105 3.506565 8.645782 39.753449 14.066668 9.298526 -11.830579 0.000000 0.000000 0.000000 3.307441 -0.621544 -6.622459 -1.314734 1.967124 -4.246586 -2.761889 -1.369730 13.564745 -0.024337 -0.118481 0.124253 -3.086009 0.077667 14.926202 -14.958440 5.651075 -4.225307 0.000000 0.000000 0.000000 -1.267534 0.270669 11.795988 1.648859 -6.971767 7.518706 -61.036660 -19.789923 30.509075 -157.675381 -82.468626 -172.018779 0.000000 0.000000 0.000000 -5.896969 2.581035 10.936057 30.089166 10.891413 8.651584 50.208785 -8.809745 15.911701 -169.485707 73.641037 -170.095835 0.000000 0.000000 0.000000 
12.238289 78.957970 -43.377102 -179.735226 -58.780383 -179.573583 -1.729973 -4.046353 11.206647 9.309995 -4.627562 -37.887281 1.660825 -1.268357 33.228443 -10.014680 -10.733701 -10.124280 0.000000 0.000000 0.000000 1.003201 -3.406678 12.228564 -0.806515 7.215270 -31.551506 3.292767 8.486408 38.951845 13.421697 9.303752 -12.646952 0.000000 0.000000 0.000000 3.220421 -0.913809 -6.126101 -0.993199 2.185408 -3.816565 -2.759636 -1.268602 13.687512 -0.019339 -0.037768 0.131475 -3.023828 0.040300 14.942451 -14.893793 5.462847 -4.051282 0.000000 0.000000 0.000000 -1.229540 0.345480 11.739917 1.967055 -7.666125 7.881135 -60.124946 -20.519662 30.390274 -155.386312 -82.456803 -174.927278 0.000000 0.000000 0.000000 -5.874940 2.661791 10.981893 31.054391 11.048096 9.076110 49.571402 -8.768697 15.416811 -169.628240 73.647512 -170.339809 0.000000 0.000000 0.000000 
13.803303 78.870438 -43.617119 -179.715951 -63.190492 -179.656078 -1.760556 -3.992735 11.342106 9.575984 -2.766682 -38.343029 1.489814 -0.812823 32.726568 -10.081568 -10.114330 -10.041823 0.000000 0.000000 0.000000 1.115279 -3.323030 12.159455 0.640072 4.573511 -31.584953 3.020112 7.997967 38.372812 12.700341 9.163829 -13.339551 0.000000 0.000000 0.000000 3.109262 -1.047538 -5.704340 -0.540567 2.272795 -3.408696 -2.733753 -1.316175 14.033184 -0.053893 0.107276 0.024968 -2.966692 0.207354 14.723110 -14.896277 5.379265 -4.065384 0.000000 0.000000 0.000000 -1.165751 0.431565 11.569497 2.069505 -8.293898 8.235384 -59.414969 -21.111710 30.302080 -154.356333 -82.327446 -176.504765 0.000000 0.000000 0.000000 -5.799878 2.737813 10.805994 31.874638 11.142482 9.400192 49.101677 -8.740611 15.134900 -169.656489 73.519132 -170.489527 0.000000 0.000000 0.000000 
15.238620 78.835625 -43.757584 -179.813145 -67.747676 -179.730185 -1.767027 -3.602796 11.528642 9.733843 -1.109918 -38.662412 1.401936 -0.437888 31.968239 -10.154945 -9.326173 -9.842610 0.000000 0.000000 0.000000 1.314950 -3.180274 12.269547 1.643669 2.507224 -31.802375 2.624777 7.256075 38.009562 11.885076 8.804133 -13.712332 0.000000 0.000000 0.000000 2.891483 -0.596235 -5.028052 -0.005957 2.405076 -3.032492 -2.636055 -1.261719 13.950344 -0.006395 0.073530 0.042136 -2.890329 0.123221 14.728647 -14.963908 5.303555 -4.109681 0.000000 0.000000 0.000000 -1.093864 0.332274 11.691112 2.139602 -9.060409 8.575093 -58.902151 -21.542096 30.038830 -153.968870 -82.203608 -177.356940 0.000000 0.000000 0.000000 -5.813143 2.575808 10.736819 32.624662 11.100902 9.685726 48.691329 -8.656756 14.826649 -169.879017 73.273211 -170.833727 0.000000 0.000000 0.000000 
16.472309 78.870956 -43.878860 -179.839769 -72.549989 -179.861270 -1.696754 -3.016663 11.422926 9.675481 0.717246 -39.132018 1.611691 0.232269 31.055118 -9.888245 -7.841276 -8.096001 0.000000 0.000000 0.000000 1.578459 -3.315679 12.360709 2.274421 0.975666 -32.080770 2.109023 6.279459 37.759536 10.923472 8.158441 -13.838394 0.000000 0.000000 0.000000 2.710393 -0.200118 -4.416620 0.646113 2.370971 -2.708772 -2.547226 -1.388099 14.035382 -0.000537 0.063959 0.018466 -2.791085 0.023801 14.658969 -15.032644 5.103273 -4.094500 0.000000 0.000000 0.000000 -0.981462 0.120274 11.578380 2.006414 -9.438566 8.750349 -58.779515 -21.366922 29.461717 -151.263214 -81.986142 179.604660 0.000000 0.000000 0.000000 -5.766620 2.464839 10.611256 33.003348 11.269897 9.966463 48.447075 -8.682727 14.464824 -170.101804 72.941516 -171.194115 0.000000 0.000000 0.000000 
17.492228 79.005898 -43.934048 -179.584374 -77.090337 179.709339 -2.012076 -2.453638 11.352591 8.893712 2.939450 -39.966883 3.137255 2.279474 29.695303 -7.970331 -4.568442 -5.951006 0.000000 0.000000 0.000000 1.785059 -3.539948 12.379398 2.728723 -0.636369 -32.235235 1.708345 5.257632 37.307477 9.916822 7.355715 -13.663180 0.000000 0.000000 0.000000 2.694216 -0.013966 -3.745341 1.372189 2.321356 -2.456946 -2.480222 -1.563199 14.113526 -0.012134 -0.007480 0.030161 -2.681690 -0.031821 14.570103 -14.988432 4.945600 -4.049894 0.000000 0.000000 0.000000 -0.894153 0.071256 11.502594 1.890749 -9.764051 8.920441 -58.943658 -20.970370 28.919929 -150.804976 -81.933228 178.899812 0.000000 0.000000 0.000000 -5.717311 2.449112 10.500710 33.119160 11.525501 10.282240 48.347392 -8.700525 14.148170 -169.411012 72.866316 -170.669652 0.000000 0.000000 0.000000 
18.382051 79.207657 -43.890301 179.676172 -81.015544 -179.795837 -2.279455 -2.133748 11.396796 7.786978 4.562143 -40.617639 4.122902 4.392451 27.788915 -6.565589 -2.362774 -5.321761 0.000000 0.000000 0.000000 1.927630 -4.006730 12.279935 2.868219 -2.007083 -32.375705 1.456362 4.806600 36.832277 8.892894 6.493738 -13.282262 0.000000 0.000000 0.000000 2.764898 -0.008110 -2.990054 1.997075 2.403049 -2.186781 -2.502405 -1.599521 14.204789 0.015424 0.023365 0.014250 -2.645355 -0.122650 14.503744 -14.896900 4.670557 -4.011251 0.000000 0.000000 0.000000 -0.850015 0.032738 11.426580 1.776656 -9.979655 9.112087 -59.279007 -20.509262 28.001390 -148.194396 -81.857147 176.195754 0.000000 0.000000 0.000000 -5.697841 2.346330 10.422778 33.003829 11.927435 10.581017 48.435108 -8.670525 13.946160 -168.476410 72.884887 -169.945584 0.000000 0.000000 0.000000 
19.209318 79.437393 -43.720798 179.091317 -84.437572 -179.243917 -2.282958 -2.209905 11.566393 6.734517 5.960412 -41.299224 4.132777 6.397489 26.024599 -5.720261 -1.035487 -4.506464 0.000000 0.000000 0.000000 2.231771 -4.591333 12.093880 2.863767 -3.142037 -32.571816 1.252161 4.552609 36.438489 8.057925 5.709269 -12.781292 0.000000 0.000000 0.000000 3.022119 -0.099741 -2.381664 2.569928 2.591444 -2.023958 -2.525550 -1.489113 14.229303 0.020604 0.093875 0.033263 -2.706026 -0.125582 14.372026 -14.778205 4.495072 -4.034338 0.000000 0.000000 0.000000 -0.946614 0.055861 11.345433 1.730465 -10.205561 9.193747 -59.885022 -20.035533 27.207232 -146.649899 -82.144322 174.705912 0.000000 0.000000 0.000000 -5.800302 2.213343 10.320120 32.695255 12.412027 10.869181 48.772605 -8.650623 13.859005 -167.526085 72.966269 -169.243236 0.000000 0.000000 0.000000 
